<svg width="27" height="26" viewBox="0 0 27 26" fill="none" xmlns="http://www.w3.org/2000/svg">
<path fill-rule="evenodd" clip-rule="evenodd" d="M15.5335 12.9969L25.9165 2.77321C26.5609 2.1388 26.5609 1.11001 25.9165 0.476008C25.2722 -0.158405 24.2278 -0.158405 23.5834 0.476008L13.2 10.6993L2.81694 0.476008C2.17261 -0.158405 1.12775 -0.158405 0.483427 0.476008C-0.160898 1.11042 -0.160898 2.13921 0.483427 2.77321L10.8669 12.9969L0.483427 23.2206C-0.160898 23.855 -0.160898 24.8838 0.483427 25.5178C0.805589 25.835 1.22799 25.9938 1.64998 25.9938C2.07196 25.9938 2.49478 25.835 2.81694 25.5178L13.2 15.2945L23.5834 25.5178C23.9056 25.835 24.328 25.9938 24.75 25.9938C25.172 25.9938 25.5948 25.835 25.9165 25.5178C26.5609 24.8834 26.5609 23.8546 25.9165 23.2206L15.5335 12.9969Z" fill="#0E0954"/>
</svg>
